# xmcd CD database file
#
# Track frame offsets:
#	150
#	27596
#	57822
#	83044
#	110630
#	130037
#	159263
#
# Disc length: 2284 seconds
#
# Revision: 0
# Processed by: cddbd v1.5.1PL0 Copyright (c) Steve Scherf et al.
# Submitted via: CDex 1.51
#
DISCID=5008ea07
DTITLE=Swartz, Harvie - Urban Earth
DYEAR=1985
DGENRE=Jazz
TTITLE0=Sweet Walk
TTITLE1=Falling
TTITLE2=Pyramid
TTITLE3=Until Tomorrow
TTITLE4=The Duke
TTITLE5=Mother Ship
TTITLE6=Round Midnight
EXTD=YEAR: 1985
EXTT0=
EXTT1=
EXTT2=
EXTT3=
EXTT4=
EXTT5=
EXTT6=
PLAYORDER=
